<?xml version="1.0" encoding="UTF-8" standalone="no"?><!DOCTYPE svg PUBLIC "-//W3C//DTD SVG 1.1//EN" "http://www.w3.org/Graphics/SVG/1.1/DTD/svg11.dtd"><svg viewBox="200 3.846 243.35 243.35" version="1.1" xmlns="http://www.w3.org/2000/svg" xmlns:xlink="http://www.w3.org/1999/xlink" xml:space="preserve" xmlns:serif="http://www.serif.com/" style="fill-rule:evenodd;clip-rule:evenodd;stroke-linejoin:round;stroke-miterlimit:2;"><g id="Capa_1-2"><circle cx="321.675" cy="125.521" r="121.675" style="fill:#ff058b;"/><path d="M432.599,107.88c-10.486,-7.609 -25.148,3.155 -38.325,5.197c-0.742,0.093 -2.784,0.093 -5.661,0.093c5.104,-2.784 9.187,-5.661 11.507,-8.723c2.691,-3.619 4.918,-11.321 2.32,-14.198c-2.413,-2.598 -12.899,0.65 -16.518,1.949c-1.856,0.65 -5.475,2.134 -10.208,4.083c17.353,-10.579 32.386,-21.157 35.262,-27.004c2.134,-4.454 -0.186,-17.167 -5.104,-17.074c-9.558,6.403 -19.023,12.991 -28.488,19.673c4.176,-4.825 7.609,-9.094 9.929,-12.435c6.774,-9.929 4.64,-20.044 -6.217,-20.415c-2.969,0 -23.477,24.869 -42.129,48.254c14.476,-24.869 28.024,-52.151 25.983,-58.276c-1.021,-2.969 -6.217,-8.073 -9.094,-8.166c-5.475,-0.093 -13.734,16.054 -20.137,30.437c1.949,-10.857 2.969,-19.394 2.134,-22.549c-1.206,-4.361 -4.454,-6.588 -9.094,-5.661c-3.433,0.742 -6.496,4.083 -8.259,7.424c-1.763,3.341 -3.619,12.342 -5.382,23.292c-0.278,-8.444 -0.742,-16.425 -1.114,-21.9c-0.278,-4.361 0.835,-13.363 -6.403,-10.3c-7.052,7.888 -11.321,18.559 -12.991,29.602c-9.744,-11.878 -23.477,-20.508 -37.304,-21.25c-7.238,3.341 -0.371,9.558 2.32,13.27c8.537,11.507 26.911,35.077 37.582,45.841c-15.218,-14.105 -32.478,-28.859 -38.51,-30.994c-3.433,-1.206 -7.888,-1.392 -10.857,0.835c-3.99,2.969 -4.825,7.331 -2.691,11.692c2.227,4.64 15.126,15.404 30.159,26.261c-15.126,-6.96 -37.489,-16.239 -42.036,-10.95c-1.949,2.32 -2.227,10.579 -1.021,13.641c1.392,3.341 10.022,7.98 21.714,12.713c-16.796,-1.578 -29.973,-2.32 -31.272,-0.742c-7.516,8.908 -2.227,18.559 9.28,20.972c3.897,0.835 9.372,1.392 15.775,1.856c-7.98,8.816 -13.363,19.673 -13.919,30.437c3.341,7.238 9.558,0.371 13.177,-2.32c2.505,-1.949 5.753,-4.269 9.187,-6.96c-9.001,10.3 -16.239,19.673 -17.631,23.756c-1.206,3.433 -1.392,7.888 0.835,10.857c2.969,3.99 7.331,4.825 11.692,2.691c3.062,-1.485 8.816,-7.609 15.497,-15.961c-6.774,15.033 -15.218,36.005 -10.115,40.273c2.32,1.949 10.579,2.227 13.641,0.928c5.661,-2.32 14.662,-24.776 22.178,-48.625c-1.763,18.095 -2.598,32.571 -1.021,33.963c5.289,4.454 10.764,4.361 14.94,1.206c-0.928,11.878 -1.114,20.322 0.093,21.343c8.908,7.516 18.559,2.227 20.972,-9.28c0.278,-1.299 0.557,-2.784 0.742,-4.361c1.114,5.104 2.32,10.208 3.526,15.311c3.897,3.619 15.682,-3.248 17.446,-7.795c2.413,-6.125 -1.763,-24.869 -7.702,-45.006c2.227,4.64 3.99,8.259 5.011,9.929c1.949,3.433 7.795,13.084 11.692,13.084c4.361,0 8.63,-6.867 9.28,-11.228c0.928,-5.846 -2.042,-14.755 -6.867,-24.498c7.609,10.764 11.414,25.983 24.684,28.117c7.238,-20.693 -6.496,-43.707 -24.776,-58.368c1.763,0.557 3.619,0.928 5.475,1.299c7.052,6.403 13.27,11.692 14.383,12.991c9.001,10.672 12.342,28.395 26.632,30.715c5.197,-14.755 -0.371,-30.808 -10.579,-44.078c15.218,-3.248 29.323,-11.321 36.469,-25.055l-0.093,0.186Z" style="fill:#2b2b2b;fill-rule:nonzero;"/><path d="M276.979,56.575c0,-5.069 4.113,-9.182 9.182,-9.182l30.995,0c12.672,0 22.311,0.997 28.834,2.95c6.523,1.994 11.8,5.983 15.83,12.007c4.03,6.024 6.024,15.705 6.024,29.125c0,9.057 -1.413,15.373 -4.238,18.946c-2.825,3.573 -8.434,6.315 -16.785,8.227c9.307,2.119 15.622,5.609 18.946,10.47c3.324,4.903 4.986,12.381 4.986,22.436l0,14.376c0,10.47 -1.205,18.24 -3.573,23.267c-2.41,5.027 -6.191,8.476 -11.426,10.345c-5.235,1.87 -15.954,2.784 -32.158,2.784l-37.435,0c-5.069,0 -9.182,-4.113 -9.182,-9.182l0,-136.568Zm40.26,20.816l0,27.422c0,1.911 1.537,3.407 3.448,3.407l0.582,0c3.947,0 6.481,-0.956 7.562,-2.908c1.08,-1.953 1.62,-7.52 1.62,-16.702c0,-4.861 -0.457,-8.227 -1.33,-10.179c-0.914,-1.953 -2.077,-3.158 -3.49,-3.698c-0.956,-0.332 -2.576,-0.582 -4.778,-0.748c-1.953,-0.125 -3.615,1.454 -3.615,3.407Zm0,57.544l0,38.266c0,1.413 1.205,2.534 2.618,2.41c4.196,-0.332 6.939,-1.205 8.268,-2.534c1.579,-1.579 2.327,-5.526 2.327,-11.758l0,-14.459c0,-6.648 -0.706,-10.636 -2.119,-12.049c-1.205,-1.205 -4.03,-1.953 -8.517,-2.244c-1.413,-0.083 -2.576,0.997 -2.576,2.41l0,-0.042Z" style="fill:#fff;fill-rule:nonzero;"/></g></svg>