<?xml version="1.0" encoding="UTF-8"?>
<svg id="Capa_2" data-name="Capa 2" xmlns="http://www.w3.org/2000/svg" viewBox="0 0 219.89 60.26">
  <defs>
    <style>
      .cls-1 {
        fill: #3c3c3b;
      }
    </style>
  </defs>
  <g id="Capa_1-2" data-name="Capa 1">
    <path class="cls-1" d="M0,24.41c0-1.22.99-2.21,2.21-2.21h7.46c3.05,0,5.37.24,6.94.71,1.57.48,2.84,1.44,3.81,2.89.97,1.45,1.45,3.78,1.45,7.01,0,2.18-.34,3.7-1.02,4.56-.68.86-2.03,1.52-4.04,1.98,2.24.51,3.76,1.35,4.56,2.52.8,1.18,1.2,2.98,1.2,5.4v3.46c0,2.52-.29,4.39-.86,5.6-.58,1.21-1.49,2.04-2.75,2.49-1.26.45-3.84.67-7.74.67H2.21c-1.22,0-2.21-.99-2.21-2.21V24.41ZM9.69,29.42v6.6c0,.46.37.82.83.82.05,0,.1,0,.14,0,.95,0,1.56-.23,1.82-.7.26-.47.39-1.81.39-4.02,0-1.17-.11-1.98-.32-2.45-.22-.47-.5-.76-.84-.89-.23-.08-.62-.14-1.15-.18-.47-.03-.87.35-.87.82ZM9.69,43.27v9.21c0,.34.29.61.63.58,1.01-.08,1.67-.29,1.99-.61.38-.38.56-1.33.56-2.83v-3.48c0-1.6-.17-2.56-.51-2.9-.29-.29-.97-.47-2.05-.54-.34-.02-.62.24-.62.58Z"/>
    <path class="cls-1" d="M49.91,44.02c0,3.75-.09,6.4-.26,7.95-.18,1.56-.73,2.98-1.66,4.27-.93,1.29-2.18,2.28-3.76,2.97-1.58.69-3.42,1.04-5.53,1.04s-3.79-.33-5.38-.98c-1.59-.65-2.87-1.63-3.83-2.94-.97-1.3-1.54-2.72-1.73-4.26-.18-1.53-.28-4.22-.28-8.06v-6.38c0-3.74.09-6.4.26-7.95.18-1.56.73-2.98,1.66-4.27.93-1.29,2.18-2.28,3.76-2.97,1.58-.69,3.42-1.04,5.53-1.04s3.79.33,5.38.98c1.59.65,2.87,1.63,3.83,2.94.97,1.3,1.54,2.72,1.73,4.26.18,1.54.28,4.22.28,8.06v6.38ZM40.21,31.77c0-1.73-.1-2.84-.29-3.33-.19-.48-.59-.73-1.19-.73-.51,0-.89.2-1.16.59-.27.39-.4,1.55-.4,3.47v17.41c0,2.16.09,3.5.26,4.01.18.51.59.76,1.23.76s1.08-.29,1.27-.87c.18-.58.28-1.97.28-4.17v-17.13Z"/>
    <path class="cls-1" d="M55.24,24.06c0-1.03.84-1.87,1.87-1.87h4.99c4.57,0,7.67.18,9.29.53,1.62.35,2.94,1.25,3.96,2.71,1.02,1.45,1.53,3.76,1.53,6.94,0,2.9-.36,4.85-1.08,5.85-.72,1-2.14,1.6-4.26,1.8,1.92.48,3.21,1.11,3.87,1.91.66.8,1.07,1.53,1.23,2.2.16.67.24,2.51.24,5.51v7.96c0,1.03-.84,1.87-1.87,1.87h-5.27c-1.03,0-1.87-.84-1.87-1.87v-10.52c0-2-.16-3.23-.47-3.71-.31-.48-1.14-.71-2.48-.71v14.94c0,1.03-.84,1.87-1.87,1.87h-5.96c-1.03,0-1.87-.84-1.87-1.87V24.06ZM64.93,28.57v8.29c1.09,0,1.85-.15,2.29-.45.44-.3.66-1.27.66-2.91v-2.05c0-1.18-.21-1.96-.63-2.33-.42-.37-1.19-.55-2.31-.55Z"/>
    <path class="cls-1" d="M83.38,23.98c0-1.03.84-1.87,1.87-1.87h4.99c4.57,0,7.67.18,9.29.53,1.62.35,2.94,1.25,3.96,2.71,1.02,1.45,1.53,3.76,1.53,6.94,0,2.9-.36,4.85-1.08,5.85-.72,1-2.14,1.6-4.26,1.8,1.92.48,3.21,1.11,3.87,1.91.66.8,1.07,1.53,1.23,2.2.16.67.24,2.51.24,5.51v7.96c0,1.03-.84,1.87-1.87,1.87h-5.27c-1.03,0-1.87-.84-1.87-1.87v-10.52c0-2-.16-3.23-.47-3.71-.31-.48-1.14-.71-2.48-.71v14.94c0,1.03-.84,1.87-1.87,1.87h-5.96c-1.03,0-1.87-.84-1.87-1.87V23.98ZM93.07,28.49v8.29c1.09,0,1.85-.15,2.29-.45.44-.3.66-1.27.66-2.91v-2.05c0-1.18-.21-1.96-.63-2.33-.42-.37-1.19-.55-2.31-.55Z"/>
    <path class="cls-1" d="M119.65,28.58v28.77c0,1.17-.95,2.12-2.12,2.12h-4.35c-1.17,0-2.12-.95-2.12-2.12v-28.77c0-1.17.95-2.12,2.12-2.12h4.35c1.17,0,2.12.95,2.12,2.12Z"/>
    <path class="cls-1" d="M144.6,33.48h-6.06c-.81,0-1.47-.66-1.47-1.47v-1.29c0-1.29-.11-2.11-.35-2.46-.23-.35-.61-.53-1.15-.53-.58,0-1.02.24-1.32.71-.3.48-.45,1.2-.45,2.17,0,1.24.17,2.18.5,2.81.32.63,1.23,1.39,2.74,2.28,4.31,2.56,7.03,4.66,8.15,6.31,1.12,1.64,1.68,4.29,1.68,7.94,0,2.66-.31,4.61-.93,5.87-.62,1.26-1.82,2.31-3.6,3.17-1.78.85-3.85,1.28-6.22,1.28-2.59,0-4.81-.49-6.64-1.47-1.83-.98-3.04-2.23-3.6-3.75-.57-1.52-.85-3.68-.85-6.47v-.97c0-.81.66-1.47,1.47-1.47h6.06c.81,0,1.47.66,1.47,1.47v3.06c0,1.4.13,2.29.38,2.69.25.4.7.6,1.35.6s1.12-.25,1.44-.76c.31-.51.47-1.26.47-2.26,0-2.19-.3-3.63-.9-4.31-.61-.68-2.13-1.8-4.54-3.38-2.41-1.6-4.01-2.76-4.79-3.48-.78-.72-1.43-1.72-1.95-2.99-.51-1.27-.77-2.9-.77-4.88,0-2.85.36-4.94,1.09-6.26.73-1.32,1.91-2.35,3.53-3.1,1.63-.74,3.59-1.12,5.89-1.12,2.52,0,4.66.41,6.44,1.22,1.77.81,2.95,1.84,3.52,3.07.58,1.24.86,3.33.86,6.3h0c0,.81-.66,1.47-1.47,1.47Z"/>
    <path class="cls-1" d="M170.7,33.48h-6.06c-.81,0-1.47-.66-1.47-1.47v-1.29c0-1.29-.11-2.11-.35-2.46-.23-.35-.61-.53-1.15-.53-.58,0-1.02.24-1.32.71-.3.48-.45,1.2-.45,2.17,0,1.24.17,2.18.5,2.81.32.63,1.23,1.39,2.74,2.28,4.31,2.56,7.03,4.66,8.15,6.31,1.12,1.64,1.68,4.29,1.68,7.94,0,2.66-.31,4.61-.93,5.87-.62,1.26-1.82,2.31-3.6,3.17-1.78.85-3.85,1.28-6.22,1.28-2.59,0-4.81-.49-6.64-1.47-1.83-.98-3.04-2.23-3.6-3.75-.57-1.52-.85-3.68-.85-6.47v-.97c0-.81.66-1.47,1.47-1.47h6.06c.81,0,1.47.66,1.47,1.47v3.06c0,1.4.13,2.29.38,2.69.25.4.7.6,1.35.6s1.12-.25,1.44-.76c.31-.51.47-1.26.47-2.26,0-2.19-.3-3.63-.9-4.31-.61-.68-2.13-1.8-4.54-3.38-2.41-1.6-4.01-2.76-4.79-3.48-.78-.72-1.43-1.72-1.95-2.99-.51-1.27-.77-2.9-.77-4.88,0-2.85.36-4.94,1.09-6.26.73-1.32,1.91-2.35,3.53-3.1,1.63-.74,3.59-1.12,5.89-1.12,2.52,0,4.66.41,6.44,1.22,1.77.81,2.95,1.84,3.52,3.07.58,1.24.86,3.33.86,6.3h0c0,.81-.66,1.47-1.47,1.47Z"/>
    <path class="cls-1" d="M199.88,44.02c0,3.75-.09,6.4-.26,7.95-.18,1.56-.73,2.98-1.66,4.27-.93,1.29-2.18,2.28-3.76,2.97-1.58.69-3.42,1.04-5.53,1.04s-3.79-.33-5.38-.98c-1.59-.65-2.87-1.63-3.83-2.94-.97-1.3-1.54-2.72-1.73-4.26-.18-1.53-.28-4.22-.28-8.06v-6.38c0-3.74.09-6.4.26-7.95.18-1.56.73-2.98,1.66-4.27.93-1.29,2.18-2.28,3.76-2.97,1.58-.69,3.42-1.04,5.53-1.04s3.79.33,5.38.98c1.59.65,2.87,1.63,3.83,2.94.97,1.3,1.54,2.72,1.73,4.26.18,1.54.28,4.22.28,8.06v6.38ZM190.19,31.77c0-1.73-.1-2.84-.29-3.33-.19-.48-.59-.73-1.19-.73-.51,0-.89.2-1.16.59-.27.39-.4,1.55-.4,3.47v17.41c0,2.16.09,3.5.26,4.01.18.51.59.76,1.23.76s1.08-.29,1.27-.87c.18-.58.28-1.97.28-4.17v-17.13Z"/>
    <path class="cls-1" d="M214,24.38v27.63h3.71c1.21,0,2.18.98,2.18,2.18v3.34c0,1.07-.87,1.93-1.93,1.93h-11.58c-1.15,0-2.08-.93-2.08-2.08V24.27c0-1.15.93-2.08,2.08-2.08h5.43c1.21,0,2.18.98,2.18,2.18Z"/>
    <path class="cls-1" d="M128.03,9.36c-1.13-.82-2.71.34-4.13.56-.08.01-.3.01-.61.01.55-.3.99-.61,1.24-.94.29-.39.53-1.22.25-1.53-.26-.28-1.39.07-1.78.21-.2.07-.59.23-1.1.44,1.87-1.14,3.49-2.28,3.8-2.91.23-.48-.02-1.85-.55-1.84-1.03.69-2.05,1.4-3.07,2.12.45-.52.82-.98,1.07-1.34.73-1.07.5-2.16-.67-2.2-.32,0-2.53,2.68-4.54,5.2,1.56-2.68,3.02-5.62,2.8-6.28-.11-.32-.67-.87-.98-.88-.59-.01-1.48,1.73-2.17,3.28.21-1.17.32-2.09.23-2.43-.13-.47-.48-.71-.98-.61-.37.08-.7.44-.89.8-.19.36-.39,1.33-.58,2.51-.03-.91-.08-1.77-.12-2.36-.03-.47.09-1.44-.69-1.11-.76.85-1.22,2-1.4,3.19-1.05-1.28-2.53-2.21-4.02-2.29-.78.36-.04,1.03.25,1.43.92,1.24,2.9,3.78,4.05,4.94-1.64-1.52-3.5-3.11-4.15-3.34-.37-.13-.85-.15-1.17.09-.43.32-.52.79-.29,1.26.24.5,1.63,1.66,3.25,2.83-1.63-.75-4.04-1.75-4.53-1.18-.21.25-.24,1.14-.11,1.47.15.36,1.08.86,2.34,1.37-1.81-.17-3.23-.25-3.37-.08-.81.96-.24,2,1,2.26.42.09,1.01.15,1.7.2-.86.95-1.44,2.12-1.5,3.28.36.78,1.03.04,1.42-.25.27-.21.62-.46.99-.75-.97,1.11-1.75,2.12-1.9,2.56-.13.37-.15.85.09,1.17.32.43.79.52,1.26.29.33-.16.95-.82,1.67-1.72-.73,1.62-1.64,3.88-1.09,4.34.25.21,1.14.24,1.47.1.61-.25,1.58-2.67,2.39-5.24-.19,1.95-.28,3.51-.11,3.66.57.48,1.16.47,1.61.13-.1,1.28-.12,2.19.01,2.3.96.81,2,.24,2.26-1,.03-.14.06-.3.08-.47.12.55.25,1.1.38,1.65.42.39,1.69-.35,1.88-.84.26-.66-.19-2.68-.83-4.85.24.5.43.89.54,1.07.21.37.84,1.41,1.26,1.41.47,0,.93-.74,1-1.21.1-.63-.22-1.59-.74-2.64.82,1.16,1.23,2.8,2.66,3.03.78-2.23-.7-4.71-2.67-6.29.19.06.39.1.59.14.76.69,1.43,1.26,1.55,1.4.97,1.15,1.33,3.06,2.87,3.31.56-1.59-.04-3.32-1.14-4.75,1.64-.35,3.16-1.22,3.93-2.7Z"/>
  </g>
</svg>