<?xml version="1.0" encoding="UTF-8"?>
<svg id="Capa_2" data-name="Capa 2" xmlns="http://www.w3.org/2000/svg" viewBox="0 0 219.89 96.58">
  <defs>
    <style>
      .cls-1 {
        fill: #3c3c3b;
      }
    </style>
  </defs>
  <g id="Capa_1-2" data-name="Capa 1">
    <g>
      <path class="cls-1" d="M.93,91.14v-19.63h13.46v1.79H3.01v16.04h11.81v1.79H.93ZM2.78,82.05v-1.77h10.38v1.77H2.78Z"/>
      <path class="cls-1" d="M26.22,91.28c-1.22,0-2.37-.17-3.45-.52-1.08-.35-1.93-.78-2.55-1.3l.9-1.57c.6.45,1.36.84,2.3,1.16.93.33,1.92.49,2.94.49,1.4,0,2.41-.22,3.03-.66.62-.44.93-1.02.93-1.75,0-.54-.17-.97-.52-1.28-.35-.31-.8-.54-1.36-.7-.56-.16-1.19-.29-1.88-.41-.69-.11-1.38-.24-2.06-.39-.68-.15-1.3-.37-1.86-.66-.56-.29-1.01-.69-1.36-1.19-.35-.5-.52-1.18-.52-2.02s.22-1.52.67-2.16c.45-.64,1.11-1.14,1.98-1.5.87-.36,1.93-.55,3.18-.55.95,0,1.91.13,2.86.38.95.25,1.74.58,2.36,1l-.87,1.6c-.65-.45-1.36-.77-2.1-.97-.75-.2-1.5-.29-2.24-.29-1.33,0-2.3.23-2.93.69-.63.46-.94,1.04-.94,1.75,0,.56.17,1,.52,1.32.35.32.8.57,1.37.74.57.18,1.2.32,1.88.43.68.11,1.36.25,2.05.41.68.16,1.31.37,1.88.65s1.03.65,1.37,1.15.52,1.15.52,1.95c0,.86-.24,1.6-.72,2.23-.48.63-1.17,1.11-2.07,1.46-.91.35-2,.52-3.29.52Z"/>
      <path class="cls-1" d="M39.18,96.58v-20.16h1.91v4.43l-.2,2.94.28,2.97v9.81h-1.99ZM46.78,91.28c-1.27,0-2.42-.29-3.45-.88-1.03-.59-1.85-1.44-2.45-2.55-.61-1.11-.91-2.47-.91-4.08s.3-2.97.9-4.08c.6-1.11,1.41-1.96,2.44-2.54,1.03-.58,2.19-.87,3.48-.87,1.4,0,2.66.31,3.77.94,1.11.63,1.99,1.5,2.62,2.64.64,1.13.95,2.44.95,3.91s-.32,2.8-.95,3.93c-.64,1.12-1.51,2-2.62,2.64-1.11.64-2.37.95-3.77.95ZM46.64,89.51c1.05,0,1.98-.24,2.8-.71.82-.48,1.48-1.15,1.96-2.02.49-.87.73-1.87.73-3.01s-.24-2.14-.73-3c-.49-.86-1.14-1.53-1.96-2.02s-1.76-.73-2.8-.73-1.99.24-2.82.73c-.83.49-1.49,1.16-1.96,2.02-.48.86-.72,1.86-.72,3s.24,2.15.72,3.01,1.13,1.54,1.96,2.02c.83.48,1.77.71,2.82.71Z"/>
      <path class="cls-1" d="M65.48,91.28c-1.1,0-2.06-.18-2.87-.55-.81-.36-1.43-.87-1.86-1.51s-.64-1.39-.64-2.23c0-.77.18-1.46.55-2.09.36-.63.96-1.13,1.79-1.51.83-.38,1.95-.57,3.35-.57h5.08v1.49h-5.02c-1.42,0-2.41.25-2.96.76-.55.5-.83,1.13-.83,1.88,0,.84.33,1.51.98,2.02.65.5,1.57.76,2.75.76s2.09-.26,2.9-.77c.81-.51,1.41-1.26,1.78-2.23l.45,1.37c-.37.97-1.02,1.75-1.95,2.33-.93.58-2.09.87-3.49.87ZM70.56,91.14v-3.25l-.08-.53v-5.44c0-1.25-.35-2.22-1.05-2.89-.7-.67-1.74-1.01-3.13-1.01-.95,0-1.86.16-2.72.48-.86.32-1.59.74-2.19,1.26l-.9-1.49c.75-.64,1.64-1.13,2.69-1.47,1.05-.35,2.15-.52,3.31-.52,1.91,0,3.38.47,4.42,1.42,1.04.94,1.56,2.38,1.56,4.3v9.14h-1.91Z"/>
      <path class="cls-1" d="M82.11,73.16c-.41,0-.76-.14-1.04-.42s-.42-.62-.42-1.01.14-.72.42-1,.63-.41,1.04-.41.76.13,1.04.39c.28.26.42.59.42.98s-.14.76-.41,1.04-.62.42-1.05.42ZM81.1,91.14v-14.72h1.99v14.72h-1.99Z"/>
      <path class="cls-1" d="M111.38,91.3c-1.48,0-2.84-.25-4.09-.74-1.25-.5-2.34-1.19-3.25-2.09-.92-.9-1.63-1.95-2.15-3.17-.51-1.21-.77-2.54-.77-3.98s.26-2.77.77-3.98c.51-1.21,1.23-2.27,2.16-3.17.93-.9,2.01-1.59,3.27-2.09,1.25-.5,2.62-.74,4.09-.74s2.76.24,4.01.72c1.25.48,2.31,1.19,3.17,2.15l-1.32,1.32c-.8-.82-1.69-1.42-2.66-1.78-.97-.36-2.02-.55-3.14-.55-1.18,0-2.27.2-3.28.6-1.01.4-1.89.97-2.64,1.71-.75.74-1.33,1.6-1.75,2.58-.42.98-.63,2.06-.63,3.24s.21,2.26.63,3.24c.42.98,1,1.84,1.75,2.58.75.74,1.63,1.31,2.64,1.71,1.01.4,2.1.6,3.28.6s2.17-.19,3.14-.56,1.86-.97,2.66-1.79l1.32,1.32c-.86.95-1.92,1.67-3.17,2.16-1.25.49-2.6.73-4.04.73Z"/>
      <path class="cls-1" d="M125.54,91.14v-14.72h1.91v4.01l-.2-.7c.41-1.12,1.1-1.98,2.07-2.57s2.18-.88,3.62-.88v1.93c-.08,0-.15,0-.22-.01s-.15-.01-.22-.01c-1.55,0-2.77.47-3.65,1.42-.88.94-1.32,2.29-1.32,4.02v7.52h-1.99Z"/>
      <path class="cls-1" d="M145.9,91.28c-1.53,0-2.88-.32-4.04-.97s-2.07-1.53-2.72-2.66c-.65-1.13-.98-2.43-.98-3.88s.31-2.75.94-3.87c.63-1.12,1.49-2,2.58-2.65s2.32-.97,3.69-.97,2.61.31,3.69.94c1.07.63,1.92,1.5,2.54,2.64.62,1.13.93,2.44.93,3.91,0,.09,0,.19-.01.29,0,.1-.01.21-.01.32h-12.81v-1.49h11.75l-.79.59c0-1.07-.23-2.01-.69-2.85-.46-.83-1.08-1.48-1.86-1.95s-1.69-.7-2.72-.7-1.92.23-2.72.7-1.43,1.12-1.88,1.96c-.45.84-.67,1.8-.67,2.89v.31c0,1.12.25,2.11.74,2.96.5.85,1.19,1.51,2.08,1.99.89.48,1.9.71,3.04.71.9,0,1.73-.16,2.51-.48.78-.32,1.44-.8,2-1.46l1.12,1.29c-.65.79-1.47,1.38-2.45,1.79s-2.06.62-3.24.62Z"/>
      <path class="cls-1" d="M163.54,91.28c-1.1,0-2.06-.18-2.87-.55-.81-.36-1.43-.87-1.86-1.51s-.64-1.39-.64-2.23c0-.77.18-1.46.55-2.09.36-.63.96-1.13,1.79-1.51.83-.38,1.95-.57,3.35-.57h5.08v1.49h-5.02c-1.42,0-2.41.25-2.96.76-.55.5-.83,1.13-.83,1.88,0,.84.33,1.51.98,2.02.65.5,1.57.76,2.75.76s2.09-.26,2.9-.77c.81-.51,1.41-1.26,1.78-2.23l.45,1.37c-.38.97-1.02,1.75-1.95,2.33-.93.58-2.09.87-3.49.87ZM168.62,91.14v-3.25l-.08-.53v-5.44c0-1.25-.35-2.22-1.05-2.89s-1.74-1.01-3.13-1.01c-.95,0-1.86.16-2.72.48-.86.32-1.59.74-2.19,1.26l-.9-1.49c.75-.64,1.64-1.13,2.69-1.47,1.05-.35,2.15-.52,3.31-.52,1.91,0,3.38.47,4.42,1.42,1.04.94,1.55,2.38,1.55,4.3v9.14h-1.91Z"/>
      <path class="cls-1" d="M176.86,78.07v-1.65h9.11v1.65h-9.11ZM183.81,91.28c-1.38,0-2.45-.37-3.2-1.12-.75-.75-1.12-1.8-1.12-3.17v-13.82h1.99v13.71c0,.86.22,1.52.66,1.99.44.47,1.07.7,1.89.7.88,0,1.61-.25,2.19-.76l.7,1.43c-.39.36-.87.62-1.42.79-.55.17-1.12.25-1.7.25Z"/>
      <path class="cls-1" d="M194.78,73.16c-.41,0-.76-.14-1.04-.42s-.42-.62-.42-1.01.14-.72.42-1,.63-.41,1.04-.41.76.13,1.04.39c.28.26.42.59.42.98s-.14.76-.41,1.04c-.27.28-.62.42-1.05.42ZM193.77,91.14v-14.72h1.99v14.72h-1.99Z"/>
      <path class="cls-1" d="M210.62,91.28c-1.25,0-2.35-.23-3.28-.7-.93-.47-1.66-1.17-2.17-2.1-.51-.93-.77-2.1-.77-3.5v-8.55h1.99v8.33c0,1.57.39,2.75,1.16,3.55.78.79,1.86,1.19,3.27,1.19,1.03,0,1.92-.21,2.68-.63.76-.42,1.34-1.03,1.74-1.84.4-.8.6-1.77.6-2.89v-7.71h1.99v14.72h-1.91v-4.04l.31.73c-.47,1.08-1.19,1.93-2.17,2.54s-2.13.91-3.43.91Z"/>
    </g>
    <path class="cls-1" d="M0,24.41c0-1.22.99-2.21,2.21-2.21h7.46c3.05,0,5.37.24,6.94.71,1.57.48,2.84,1.44,3.81,2.89.97,1.45,1.45,3.78,1.45,7.01,0,2.18-.34,3.7-1.02,4.56-.68.86-2.03,1.52-4.04,1.98,2.24.51,3.76,1.35,4.56,2.52.8,1.18,1.2,2.98,1.2,5.4v3.46c0,2.52-.29,4.39-.86,5.6-.58,1.21-1.49,2.04-2.75,2.49-1.26.45-3.84.67-7.74.67H2.21c-1.22,0-2.21-.99-2.21-2.21V24.41ZM9.69,29.42v6.6c0,.46.37.82.83.82.05,0,.1,0,.14,0,.95,0,1.56-.23,1.82-.7.26-.47.39-1.81.39-4.02,0-1.17-.11-1.98-.32-2.45-.22-.47-.5-.76-.84-.89-.23-.08-.62-.14-1.15-.18-.47-.03-.87.35-.87.82ZM9.69,43.27v9.21c0,.34.29.61.63.58,1.01-.08,1.67-.29,1.99-.61.38-.38.56-1.33.56-2.83v-3.48c0-1.6-.17-2.56-.51-2.9-.29-.29-.97-.47-2.05-.54-.34-.02-.62.24-.62.58Z"/>
    <path class="cls-1" d="M49.91,44.02c0,3.75-.09,6.4-.26,7.95-.18,1.56-.73,2.98-1.66,4.27-.93,1.29-2.18,2.28-3.76,2.97-1.58.69-3.42,1.04-5.53,1.04s-3.79-.33-5.38-.98c-1.59-.65-2.87-1.63-3.83-2.94-.97-1.3-1.54-2.72-1.73-4.26-.18-1.53-.28-4.22-.28-8.06v-6.38c0-3.74.09-6.4.26-7.95.18-1.56.73-2.98,1.66-4.27.93-1.29,2.18-2.28,3.76-2.97,1.58-.69,3.42-1.04,5.53-1.04s3.79.33,5.38.98c1.59.65,2.87,1.63,3.83,2.94.97,1.3,1.54,2.72,1.73,4.26.18,1.54.28,4.22.28,8.06v6.38ZM40.21,31.77c0-1.73-.1-2.84-.29-3.33-.19-.48-.59-.73-1.19-.73-.51,0-.89.2-1.16.59-.27.39-.4,1.55-.4,3.47v17.41c0,2.16.09,3.5.26,4.01.18.51.59.76,1.23.76s1.08-.29,1.27-.87c.18-.58.28-1.97.28-4.17v-17.13Z"/>
    <path class="cls-1" d="M55.24,24.06c0-1.03.84-1.87,1.87-1.87h4.99c4.57,0,7.67.18,9.29.53,1.62.35,2.94,1.25,3.96,2.71,1.02,1.45,1.53,3.76,1.53,6.94,0,2.9-.36,4.85-1.08,5.85-.72,1-2.14,1.6-4.26,1.8,1.92.48,3.21,1.11,3.87,1.91.66.8,1.07,1.53,1.23,2.2.16.67.24,2.51.24,5.51v7.96c0,1.03-.84,1.87-1.87,1.87h-5.27c-1.03,0-1.87-.84-1.87-1.87v-10.52c0-2-.16-3.23-.47-3.71-.31-.48-1.14-.71-2.48-.71v14.94c0,1.03-.84,1.87-1.87,1.87h-5.96c-1.03,0-1.87-.84-1.87-1.87V24.06ZM64.93,28.57v8.29c1.09,0,1.85-.15,2.29-.45.44-.3.66-1.27.66-2.91v-2.05c0-1.18-.21-1.96-.63-2.33-.42-.37-1.19-.55-2.31-.55Z"/>
    <path class="cls-1" d="M83.38,23.98c0-1.03.84-1.87,1.87-1.87h4.99c4.57,0,7.67.18,9.29.53,1.62.35,2.94,1.25,3.96,2.71,1.02,1.45,1.53,3.76,1.53,6.94,0,2.9-.36,4.85-1.08,5.85-.72,1-2.14,1.6-4.26,1.8,1.92.48,3.21,1.11,3.87,1.91.66.8,1.07,1.53,1.23,2.2.16.67.24,2.51.24,5.51v7.96c0,1.03-.84,1.87-1.87,1.87h-5.27c-1.03,0-1.87-.84-1.87-1.87v-10.52c0-2-.16-3.23-.47-3.71-.31-.48-1.14-.71-2.48-.71v14.94c0,1.03-.84,1.87-1.87,1.87h-5.96c-1.03,0-1.87-.84-1.87-1.87V23.98ZM93.07,28.49v8.29c1.09,0,1.85-.15,2.29-.45.44-.3.66-1.27.66-2.91v-2.05c0-1.18-.21-1.96-.63-2.33-.42-.37-1.19-.55-2.31-.55Z"/>
    <path class="cls-1" d="M119.65,28.58v28.77c0,1.17-.95,2.12-2.12,2.12h-4.35c-1.17,0-2.12-.95-2.12-2.12v-28.77c0-1.17.95-2.12,2.12-2.12h4.35c1.17,0,2.12.95,2.12,2.12Z"/>
    <path class="cls-1" d="M144.6,33.48h-6.06c-.81,0-1.47-.66-1.47-1.47v-1.29c0-1.29-.11-2.11-.35-2.46-.23-.35-.61-.53-1.15-.53-.58,0-1.02.24-1.32.71-.3.48-.45,1.2-.45,2.17,0,1.24.17,2.18.5,2.81.32.63,1.23,1.39,2.74,2.28,4.31,2.56,7.03,4.66,8.15,6.31,1.12,1.64,1.68,4.29,1.68,7.94,0,2.66-.31,4.61-.93,5.87-.62,1.26-1.82,2.31-3.6,3.17-1.78.85-3.85,1.28-6.22,1.28-2.59,0-4.81-.49-6.64-1.47-1.83-.98-3.04-2.23-3.6-3.75-.57-1.52-.85-3.68-.85-6.47v-.97c0-.81.66-1.47,1.47-1.47h6.06c.81,0,1.47.66,1.47,1.47v3.06c0,1.4.13,2.29.38,2.69.25.4.7.6,1.35.6s1.12-.25,1.44-.76c.31-.51.47-1.26.47-2.26,0-2.19-.3-3.63-.9-4.31-.61-.68-2.13-1.8-4.54-3.38-2.41-1.6-4.01-2.76-4.79-3.48-.78-.72-1.43-1.72-1.95-2.99-.51-1.27-.77-2.9-.77-4.88,0-2.85.36-4.94,1.09-6.26.73-1.32,1.91-2.35,3.53-3.1,1.63-.74,3.59-1.12,5.89-1.12,2.52,0,4.66.41,6.44,1.22,1.77.81,2.95,1.84,3.52,3.07.58,1.24.86,3.33.86,6.3h0c0,.81-.66,1.47-1.47,1.47Z"/>
    <path class="cls-1" d="M170.7,33.48h-6.06c-.81,0-1.47-.66-1.47-1.47v-1.29c0-1.29-.11-2.11-.35-2.46-.23-.35-.61-.53-1.15-.53-.58,0-1.02.24-1.32.71-.3.48-.45,1.2-.45,2.17,0,1.24.17,2.18.5,2.81.32.63,1.23,1.39,2.74,2.28,4.31,2.56,7.03,4.66,8.15,6.31,1.12,1.64,1.68,4.29,1.68,7.94,0,2.66-.31,4.61-.93,5.87-.62,1.26-1.82,2.31-3.6,3.17-1.78.85-3.85,1.28-6.22,1.28-2.59,0-4.81-.49-6.64-1.47-1.83-.98-3.04-2.23-3.6-3.75-.57-1.52-.85-3.68-.85-6.47v-.97c0-.81.66-1.47,1.47-1.47h6.06c.81,0,1.47.66,1.47,1.47v3.06c0,1.4.13,2.29.38,2.69.25.4.7.6,1.35.6s1.12-.25,1.44-.76c.31-.51.47-1.26.47-2.26,0-2.19-.3-3.63-.9-4.31-.61-.68-2.13-1.8-4.54-3.38-2.41-1.6-4.01-2.76-4.79-3.48-.78-.72-1.43-1.72-1.95-2.99-.51-1.27-.77-2.9-.77-4.88,0-2.85.36-4.94,1.09-6.26.73-1.32,1.91-2.35,3.53-3.1,1.63-.74,3.59-1.12,5.89-1.12,2.52,0,4.66.41,6.44,1.22,1.77.81,2.95,1.84,3.52,3.07.58,1.24.86,3.33.86,6.3h0c0,.81-.66,1.47-1.47,1.47Z"/>
    <path class="cls-1" d="M199.88,44.02c0,3.75-.09,6.4-.26,7.95-.18,1.56-.73,2.98-1.66,4.27-.93,1.29-2.18,2.28-3.76,2.97-1.58.69-3.42,1.04-5.53,1.04s-3.79-.33-5.38-.98c-1.59-.65-2.87-1.63-3.83-2.94-.97-1.3-1.54-2.72-1.73-4.26-.18-1.53-.28-4.22-.28-8.06v-6.38c0-3.74.09-6.4.26-7.95.18-1.56.73-2.98,1.66-4.27.93-1.29,2.18-2.28,3.76-2.97,1.58-.69,3.42-1.04,5.53-1.04s3.79.33,5.38.98c1.59.65,2.87,1.63,3.83,2.94.97,1.3,1.54,2.72,1.73,4.26.18,1.54.28,4.22.28,8.06v6.38ZM190.19,31.77c0-1.73-.1-2.84-.29-3.33-.19-.48-.59-.73-1.19-.73-.51,0-.89.2-1.16.59-.27.39-.4,1.55-.4,3.47v17.41c0,2.16.09,3.5.26,4.01.18.51.59.76,1.23.76s1.08-.29,1.27-.87c.18-.58.28-1.97.28-4.17v-17.13Z"/>
    <path class="cls-1" d="M214,24.38v27.63h3.71c1.21,0,2.18.98,2.18,2.18v3.34c0,1.07-.87,1.93-1.93,1.93h-11.58c-1.15,0-2.08-.93-2.08-2.08V24.27c0-1.15.93-2.08,2.08-2.08h5.43c1.21,0,2.18.98,2.18,2.18Z"/>
    <path class="cls-1" d="M128.03,9.36c-1.13-.82-2.71.34-4.13.56-.08.01-.3.01-.61.01.55-.3.99-.61,1.24-.94.29-.39.53-1.22.25-1.53-.26-.28-1.39.07-1.78.21-.2.07-.59.23-1.1.44,1.87-1.14,3.49-2.28,3.8-2.91.23-.48-.02-1.85-.55-1.84-1.03.69-2.05,1.4-3.07,2.12.45-.52.82-.98,1.07-1.34.73-1.07.5-2.16-.67-2.2-.32,0-2.53,2.68-4.54,5.2,1.56-2.68,3.02-5.62,2.8-6.28-.11-.32-.67-.87-.98-.88-.59-.01-1.48,1.73-2.17,3.28.21-1.17.32-2.09.23-2.43-.13-.47-.48-.71-.98-.61-.37.08-.7.44-.89.8-.19.36-.39,1.33-.58,2.51-.03-.91-.08-1.77-.12-2.36-.03-.47.09-1.44-.69-1.11-.76.85-1.22,2-1.4,3.19-1.05-1.28-2.53-2.21-4.02-2.29-.78.36-.04,1.03.25,1.43.92,1.24,2.9,3.78,4.05,4.94-1.64-1.52-3.5-3.11-4.15-3.34-.37-.13-.85-.15-1.17.09-.43.32-.52.79-.29,1.26.24.5,1.63,1.66,3.25,2.83-1.63-.75-4.04-1.75-4.53-1.18-.21.25-.24,1.14-.11,1.47.15.36,1.08.86,2.34,1.37-1.81-.17-3.23-.25-3.37-.08-.81.96-.24,2,1,2.26.42.09,1.01.15,1.7.2-.86.95-1.44,2.12-1.5,3.28.36.78,1.03.04,1.42-.25.27-.21.62-.46.99-.75-.97,1.11-1.75,2.12-1.9,2.56-.13.37-.15.85.09,1.17.32.43.79.52,1.26.29.33-.16.95-.82,1.67-1.72-.73,1.62-1.64,3.88-1.09,4.34.25.21,1.14.24,1.47.1.61-.25,1.58-2.67,2.39-5.24-.19,1.95-.28,3.51-.11,3.66.57.48,1.16.47,1.61.13-.1,1.28-.12,2.19.01,2.3.96.81,2,.24,2.26-1,.03-.14.06-.3.08-.47.12.55.25,1.1.38,1.65.42.39,1.69-.35,1.88-.84.26-.66-.19-2.68-.83-4.85.24.5.43.89.54,1.07.21.37.84,1.41,1.26,1.41.47,0,.93-.74,1-1.21.1-.63-.22-1.59-.74-2.64.82,1.16,1.23,2.8,2.66,3.03.78-2.23-.7-4.71-2.67-6.29.19.06.39.1.59.14.76.69,1.43,1.26,1.55,1.4.97,1.15,1.33,3.06,2.87,3.31.56-1.59-.04-3.32-1.14-4.75,1.64-.35,3.16-1.22,3.93-2.7Z"/>
  </g>
</svg>