<?xml version="1.0" encoding="UTF-8" standalone="no"?><!DOCTYPE svg PUBLIC "-//W3C//DTD SVG 1.1//EN" "http://www.w3.org/Graphics/SVG/1.1/DTD/svg11.dtd"><svg width="100%" height="100%" viewBox="0 0 657 150" version="1.1" xmlns="http://www.w3.org/2000/svg" xmlns:xlink="http://www.w3.org/1999/xlink" xml:space="preserve" xmlns:serif="http://www.serif.com/" style="fill-rule:evenodd;clip-rule:evenodd;stroke-linejoin:round;stroke-miterlimit:2;"><g id="Background"><path d="M145.725,83.036c1.136,-2.43 7.329,-15.681 10.684,-31.787c1.398,-6.713 2.772,-13.038 -4.781,-15.516c-4.573,-1.5 -5.949,-1.502 -5.203,-6.23c0.705,-4.468 0.271,-4.5 0.356,-4.882c0.206,-0.924 1.875,-3.713 2.06,-4.024c4.138,-6.915 23.487,-23.959 32.311,-14.04c3.565,4.007 2.921,9.007 0.782,16.639c-5.826,20.793 -7.819,22.694 -4.937,24.282c2.783,1.534 2.77,0.012 5.968,-1.541c4.087,-1.985 10.997,-1.797 15.854,1.957c8.65,6.687 9.117,15.229 4.785,28.419c-5.02,15.289 -4.316,15.746 -10.271,23.039c-17.986,22.03 -29.905,17.419 -35.297,16.692c-8.992,-1.213 -18.195,5.265 -23.578,-4.394c-1.853,-3.326 -0.611,-3.467 0.365,-7.1c0.81,-3.016 0.4,-3.057 1.191,-6.06c0.372,-1.412 0.53,-1.305 9.709,-15.454Zm30.762,-10.41c1.102,0.206 2.26,-0.108 3.362,0.098c0.511,0.096 4.202,0.785 5.035,4.114c0.069,0.275 -0.044,7.125 -8.47,8.148c-9.009,1.094 -11.648,-5.023 -6.947,-9.263c3.006,-2.711 6.209,-2.829 7.019,-3.098Z" style="fill:#ffffff;fill-opacity:0.99;"/><path d="M345.716,146.82c-1.349,0.827 -18.348,0.771 -19.688,-0.214c-1.891,-1.391 -2.586,-0.402 -6.048,-4.116c-5.443,-5.841 -9.149,-21.611 9.881,-23.835c16.789,-1.962 28.66,-0.102 37.868,-29.425c3.888,-12.382 -1.031,-12.058 -3.454,-15.93c-3.346,-5.348 1.186,-18.762 6.044,-21.727c9.474,-5.782 15.775,-3.025 16.755,-18.666c0.35,-5.588 -0.314,-35.333 17.809,-28.693c11.098,4.066 26.584,32.154 9.269,33.269c-3.497,0.225 -3.933,-1.052 -6.571,1.332c-0.392,0.355 -3.34,3.018 0.129,6.611c1.15,1.191 7.174,1.371 5.631,9.228c-1.089,5.546 -1.784,5.268 -5.335,9.619c-0.377,0.462 -0.486,2.081 -6.738,5.238c-10.415,5.26 -11.98,6.216 -16.776,25.461c-6.52,26.161 -10.927,36.863 -29.343,48.056c-5.773,3.509 -8.476,3.205 -9.432,3.791Z" style="fill:#ffffff;fill-opacity:0.99;"/><path d="M36.056,145.603c-5.408,2.017 -24.811,0.688 -25.501,0.434c-0.689,-0.255 -1.581,-0.808 -2.264,-1.365c-5.547,-4.524 -5.206,-7.622 -5.134,-15.267c0.027,-2.902 -1.487,-9.1 14.184,-10.802c11.132,-1.21 28.942,0.778 37.384,-32.655c2.699,-10.687 -4.65,-9.084 -5.437,-15.754c-0.357,-3.023 0.874,-15.239 8.159,-19.239c6.75,-3.707 13.987,-2.872 15.245,-15.102c1.312,-12.76 0.59,-31.864 13.194,-32.466c8.145,-0.389 20.308,11.209 20.864,23.549c0.019,0.423 -0.181,0.416 0.008,5.298c0.042,1.085 0.536,4.236 -4.884,5.257c-1.174,0.221 -2.389,0.084 -3.577,0.207c-8.831,0.916 -7.319,6.134 -3.558,8.401c4.714,2.841 5.633,3.262 4.311,8.616c-2.616,10.588 -5.712,12.161 -6.737,12.682c-5.772,2.932 -14.557,3.731 -19.353,18.382c-5.222,15.952 -6.181,44.531 -34.286,58.717c-1.004,0.507 -2.406,1.03 -2.619,1.109Z" style="fill:#ffffff;fill-opacity:1;"/><path d="M485.432,50.476c3.328,-1.322 3.154,-1.899 6.756,-2.03c4.264,-0.155 6.371,2.243 6.755,2.679c2.076,2.363 1.657,5.004 -0.141,9.895c-5.39,14.67 -5.047,14.772 -5.611,16.006c-5.726,12.54 1.809,13.827 6.121,10.325c6.993,-5.679 9.979,-8.343 7.052,-12.969c-2.298,-3.632 -3.453,-3.803 -1.234,-10.019c0.533,-1.494 3.105,-8.697 12.35,-15.517c9.581,-7.069 19.05,-4.344 20.126,2.936c0.886,6 -17.84,36.59 -17.968,36.766c-21.251,29.211 -39.611,31.205 -46.856,26.799c-18.469,-11.232 11.374,-28.742 -2.466,-35.664c-8,-4.001 -4.758,-6.341 -2.492,-12.093c3.957,-10.045 15.864,-16.211 17.609,-17.114Z" style="fill:#ffffff;fill-opacity:1;"/><path d="M435.733,47.981c6.244,-2.165 6.051,-2.947 12.651,-3.422c0.732,-0.053 5.673,-0.408 9.052,1.523c12.177,6.96 3.034,20.131 2.811,20.676c-1.112,2.708 -2.532,7.007 -8.675,9.815c-9.6,4.387 -8.727,6.726 -19.141,8.126c-0.519,0.07 -7.873,1.059 -4.142,5.064c6.186,6.64 16.538,-1.547 23.656,-5.63c7.337,-4.21 11.088,0.996 8.751,7.977c-7.369,22.009 -50.341,39.55 -55.641,6.27c-2.949,-18.514 9.028,-30.51 12,-34.438c7.16,-9.464 7.184,-9.688 18.678,-15.96Zm-3.394,21.476c1.259,-0.179 2.37,-0.996 3.63,-1.175c0.324,-0.046 3.221,-0.458 3.828,1.447c0.195,0.612 1.712,5.372 -3.736,7.107c-6.821,2.172 -10.925,-0.897 -5.825,-5.978c0.597,-0.595 1.507,-0.806 2.104,-1.4Z" style="fill:#ffffff;fill-opacity:0.99;"/><path d="M254.268,76.161c-4.286,2.512 -4.301,2.405 -8.59,4.884c-9.393,5.43 -14.487,2.694 -15.922,4.933c-2.646,4.128 4.727,10.33 17.854,2.012c5.002,-3.17 5.036,-2.965 10.318,-5.652c0.836,0.528 2.068,0.081 2.904,0.608c6.546,4.13 -3.444,21.865 -15.334,28.295c-31.967,17.286 -41.073,-7.361 -38.093,-22.203c2.624,-13.069 6.521,-19.72 7.432,-21.275c14.774,-25.212 53.353,-31.582 50.3,-9.947c-2.16,15.306 -10.243,17.9 -10.869,18.346Zm-21.49,-5.891c1.91,-0.619 1.599,-1.144 3.484,-1.755c0.201,-0.065 1.628,-0.527 2.627,-0.225c4.467,1.352 3.474,4.686 3.334,5.157c-0.981,3.294 -10.265,5.351 -11.757,2.725c-1.787,-3.146 0.076,-3.08 2.313,-5.902Z" style="fill:#ffffff;fill-opacity:1;"/><path d="M558.178,49.13c5.896,-2.527 5.716,-2.963 12.075,-4.158c0.961,-0.181 7.726,-1.453 12.167,1.132c8.631,5.023 5.814,11.474 4.221,18.275c-2.271,9.689 -7.727,10.377 -13.84,14.275c-12.676,8.083 -14.64,5.084 -18.767,6.616c-0.726,0.269 -2.607,2.611 -0.803,4.531c9.178,9.773 25.929,-12.565 31.729,-6.133c4.093,4.538 -3.703,16.742 -6.5,19.813c-3.139,3.446 -11.831,9.077 -12.02,9.167c-27.387,13.14 -36.188,-6 -36.868,-17.328c-0.745,-12.412 10.738,-30.169 14.86,-35.249c5.509,-6.79 10.776,-9.187 13.749,-10.941Zm-0.848,20.284c1.256,-0.167 2.369,-0.974 3.624,-1.141c0.325,-0.043 3.203,-0.426 3.808,1.499c0.191,0.606 1.653,5.26 -3.717,7.02c-6.831,2.239 -10.99,-0.886 -5.852,-5.971c0.606,-0.6 1.531,-0.807 2.137,-1.407Z" style="fill:#ffffff;fill-opacity:0.99;"/><path d="M652.753,50.907c1.586,2.067 1.041,12.306 0.118,13.683c-1.135,1.694 0.151,4.116 -6.875,9.766c-11.69,9.401 -18.397,-2.762 -23.254,0.896c-13.062,9.84 -0.721,28.394 -12.136,38.428c-7.331,6.444 -27.465,3.961 -19.158,-15.551c5.851,-13.743 11.943,-20.54 5.958,-26.782c-2.333,-2.433 -3.273,-1.811 -3.943,-5.049c-0.092,-0.446 0.319,-0.299 1.756,-5.409c2.936,-10.442 20.408,-18.919 27.88,-12.084c0.593,0.543 0.374,4.723 2.981,4.843c0.484,0.022 3.169,-0.533 7.511,-4.177c10.762,-9.03 16.952,-2.05 17.904,-0.976c0.225,0.253 0.366,0.461 0.462,0.645c0.306,0.586 0.154,0.932 0.795,1.766Z" style="fill:#ffffff;fill-opacity:0.99;"/><path d="M302.945,53.13c0.346,0.015 1.642,3.208 1.642,3.208c0,0 2.226,-3.013 2.351,-3.032c0.585,-0.091 0.671,-0.984 1.092,-1.401c11.762,-11.661 18.213,-5.459 19.357,-4.359c10.904,10.483 -2.406,33.47 -16.71,30.234c-4.847,-1.097 -10.309,-7.904 -15.08,2.065c-3.737,7.809 -2.696,13.989 -2.572,18.558c0.589,21.698 -19.138,20.814 -24.491,14.527c-6.643,-7.803 3.125,-20.628 7.174,-30.467c3.866,-9.395 -3.286,-11.946 -4.232,-13.351c-0.333,-0.494 -1.38,-2.049 0.098,-7.45c0.835,-3.052 5.789,-12.222 17.141,-14.725c11.397,-2.512 12.901,4.493 14.23,6.195Z" style="fill:#ffffff;fill-opacity:0.99;"/><path d="M128.981,98.905c-0.112,1.628 -1.569,5.403 -2.058,6.073c-0.45,0.617 -0.541,1.455 -1.017,2.051c-6.04,7.562 -22.876,13.996 -30.523,6.956c-12.357,-11.375 9.242,-28.391 11.207,-37.639c1.377,-6.482 -7.518,-8.583 0.908,-21.986c1.482,-2.358 7.037,-6.315 13.159,-8.137c15.62,-4.648 20.298,3.645 11.117,17.14c-5.202,7.646 -5.246,7.569 -9.322,15.884c-7.579,15.46 4.079,14.185 6.197,17.398c0.419,0.635 0.387,1.451 0.331,2.259Z" style="fill:#ffffff;fill-opacity:1;"/><path d="M123.112,19.374c6.183,-1.132 6.165,-1.764 9.532,-1.084c5.975,1.206 6.691,4.555 6.898,4.898c0.333,0.551 0.1,2.681 -0.178,3.392c-0.364,0.932 -0.298,1.98 -0.53,2.953c-2.061,8.637 -21.19,8.903 -24.127,5.554c-1.207,-1.376 -0.981,-9.11 0.251,-10.637c3.081,-3.819 3.644,-3.034 8.153,-5.077Z" style="fill:#ffffff;fill-opacity:0.99;"/><path d="M254.268,76.161c1.22,2.059 2.44,4.118 3.66,6.176c-5.282,2.687 -5.316,2.483 -10.318,5.652c-13.127,8.318 -20.499,2.116 -17.854,-2.012c1.435,-2.239 6.528,0.497 15.922,-4.933c4.289,-2.479 4.304,-2.372 8.59,-4.884Z" style="fill:#ffffff;fill-opacity:0.09;"/></g></svg>