<svg xmlns="http://www.w3.org/2000/svg" viewBox="0 0 100 100">
  <circle cx="50" cy="50" r="50" fill="white"/>
  <g transform="translate(10, 10.91) scale(0.919)">
    <path fill="#3c3c3b" d="M87.05,35.45c-4.26-3.11-10.25,1.29-15.63,2.11-.3.05-1.14.05-2.31.05,2.1-1.12,3.76-2.32,4.69-3.57,1.09-1.46,2.02-4.61.96-5.79-.97-1.08-5.26.27-6.74.78-.75.26-2.25.86-4.17,1.66,7.07-4.31,13.22-8.62,14.38-11,.88-1.82-.06-7-2.08-6.96-3.88,2.62-7.77,5.29-11.63,8.04,1.7-1.96,3.12-3.73,4.03-5.07,2.75-4.07,1.89-8.19-2.53-8.31-1.2-.03-9.57,10.16-17.2,19.69,5.91-10.15,11.42-21.29,10.6-23.76C59.03,2.12,56.89.03,55.73,0c-2.23-.05-5.62,6.55-8.23,12.43.81-4.41,1.2-7.92.85-9.21-.48-1.78-1.83-2.7-3.72-2.3-1.41.3-2.66,1.68-3.36,3.01-.72,1.38-1.49,5.04-2.19,9.49-.13-3.46-.3-6.7-.44-8.95-.12-1.79.34-5.47-2.61-4.21-2.86,3.22-4.64,7.57-5.31,12.08-3.98-4.86-9.59-8.35-15.23-8.66-2.95,1.38-.16,3.9.96,5.4,3.5,4.69,10.96,14.3,15.34,18.7-6.21-5.77-13.25-11.77-15.71-12.63-1.39-.49-3.21-.57-4.41.33-1.62,1.2-1.97,3-1.11,4.78.92,1.91,6.18,6.3,12.31,10.73-6.17-2.83-15.31-6.63-17.14-4.48-.8.94-.92,4.31-.4,5.58.57,1.38,4.07,3.25,8.87,5.19-6.87-.65-12.24-.95-12.77-.32-3.06,3.63-.91,7.56,3.77,8.55,1.58.33,3.83.58,6.43.76-3.27,3.61-5.45,8.01-5.69,12.43,1.38,2.95,3.9.16,5.39-.96,1.04-.78,2.33-1.76,3.74-2.85-3.65,4.22-6.62,8.02-7.21,9.7-.48,1.39-.56,3.21.33,4.41,1.2,1.62,3.01,1.96,4.78,1.11,1.26-.61,3.6-3.11,6.31-6.5-2.78,6.14-6.22,14.68-4.14,16.44.94.8,4.31.92,5.58.4,2.31-.95,5.98-10.09,9.03-19.85-.71,7.38-1.07,13.29-.41,13.85,2.15,1.81,4.4,1.78,6.09.5-.37,4.83-.45,8.29.05,8.71,3.64,3.06,7.56.91,8.55-3.78.11-.53.21-1.13.3-1.79.47,2.09.95,4.16,1.43,6.23,1.6,1.46,6.41-1.34,7.13-3.19.97-2.5-.71-10.15-3.12-18.36.91,1.9,1.64,3.36,2.03,4.07.78,1.4,3.16,5.35,4.79,5.32,1.77-.03,3.5-2.8,3.77-4.56.37-2.39-.82-6.02-2.82-9.98,3.1,4.39,4.67,10.61,10.08,11.49,2.96-8.44-2.64-17.85-10.11-23.82.72.21,1.47.4,2.23.55,2.87,2.61,5.42,4.76,5.86,5.28,3.67,4.37,5.02,11.58,10.88,12.53,2.11-6.03-.15-12.55-4.33-17.97,6.2-1.34,11.97-4.62,14.89-10.21Z"/>
  </g>
</svg>
